{
.appVersion = "3133";
DisplayStrings = (
c
);
date = "2019-06-23 23:41:04 +0000";
designer = boyanurd;
familyName = peram;
featurePrefixes = (
{
automatic = 1;
code = "languagesystem DFLT dflt;\012";
name = Languagesystems;
}
);
features = (
{
automatic = 1;
code = "feature salt;\012feature ss01;\012feature ss02;\012";
name = aalt;
},
{
automatic = 1;
code = "sub L P by L_P;\012";
name = dlig;
},
{
automatic = 1;
code = "sub E by E.ss01;\012sub a by a.ss01;\012";
name = salt;
},
{
automatic = 1;
code = "sub E by E.ss01;\012sub a by a.ss01;\012";
name = ss01;
},
{
automatic = 1;
code = "sub a by a.ss02;\012";
name = ss02;
}
);
fontMaster = (
{
alignmentZones = (
"{800, 16}",
"{700, 10}",
"{605, 10}",
"{0, -10}",
"{-200, -16}"
);
ascender = 800;
capHeight = 700;
descender = -200;
id = "C6EFB8F5-3E54-4804-BD3F-E61218EDE0CA";
userData = {
GSCornerRadius = 15;
GSOffsetHorizontal = 45;
GSOffsetMakeStroke = 1;
GSOffsetPosition = 1;
GSOffsetVertical = 75;
};
xHeight = 605;
}
);
glyphs = (
{
glyphname = A;
lastChange = "2019-06-26 06:00:13 +0000";
layers = (
{
hints = (
{
horizontal = 1;
origin = "{3, 0}";
target = up;
type = BottomGhost;
},
{
horizontal = 1;
origin = "{1, 0}";
target = "{1, 3}";
type = Stem;
},
{
horizontal = 1;
origin = "{3, 3}";
target = "{2, 0}";
type = Stem;
},
{
origin = "{3, 0}";
target = "{0, 2}";
type = Stem;
}
);
layerId = "C6EFB8F5-3E54-4804-BD3F-E61218EDE0CA";
paths = (
{
closed = 1;
nodes = (
"473 700 LINE",
"763 0 LINE",
"850 0 LINE",
"560 700 LINE"
);
},
{
closed = 1;
nodes = (
"131 138 LINE",
"729 138 LINE",
"687 293 LINE",
"177 293 LINE"
);
},
{
closed = 1;
nodes = (
"315 538 LINE",
"546 538 LINE",
"508 700 LINE",
"355 700 LINE"
);
},
{
closed = 1;
nodes = (
"10 0 LINE",
"97 0 LINE",
"387 700 LINE",
"300 700 LINE"
);
}
);
width = 860;
}
);
unicode = 0041;
},
{
glyphname = E;
lastChange = "2019-06-26 06:05:32 +0000";
layers = (
{
layerId = "C6EFB8F5-3E54-4804-BD3F-E61218EDE0CA";
paths = (
{
closed = 1;
nodes = (
"589 0 LINE",
"589 155 LINE",
"120 155 LINE",
"120 545 LINE",
"589 545 LINE",
"589 700 LINE",
"40 700 LINE",
"40 0 LINE"
);
},
{
closed = 1;
nodes = (
"214 312 OFFCURVE",
"270 287 OFFCURVE",
"354 287 CURVE SMOOTH",
"438 287 OFFCURVE",
"493 312 OFFCURVE",
"493 351 CURVE SMOOTH",
"493 389 OFFCURVE",
"437 414 OFFCURVE",
"354 414 CURVE SMOOTH",
"270 414 OFFCURVE",
"214 389 OFFCURVE",
"214 351 CURVE SMOOTH"
);
}
);
width = 619;
}
);
unicode = 0045;
},
{
glyphname = I;
lastChange = "2019-06-26 05:59:30 +0000";
layers = (
{
hints = (
{
horizontal = 1;
origin = "{1, 0}";
target = "{1, 3}";
type = Stem;
},
{
horizontal = 1;
origin = "{2, 3}";
target = "{2, 0}";
type = Stem;
},
{
origin = "{0, 0}";
target = "{0, 1}";
type = Stem;
}
);
layerId = "C6EFB8F5-3E54-4804-BD3F-E61218EDE0CA";
paths = (
{
closed = 1;
nodes = (
"233 0 LINE",
"316 0 LINE",
"316 700 LINE",
"233 700 LINE"
);
},
{
closed = 1;
nodes = (
"35 0 LINE",
"514 0 LINE",
"514 155 LINE",
"35 155 LINE"
);
},
{
closed = 1;
nodes = (
"35 545 LINE",
"514 545 LINE",
"514 700 LINE",
"35 700 LINE"
);
}
);
width = 549;
}
);
unicode = 0049;
},
{
glyphname = K;
lastChange = "2019-06-26 06:05:56 +0000";
layers = (
{
layerId = "C6EFB8F5-3E54-4804-BD3F-E61218EDE0CA";
paths = (
{
closed = 1;
nodes = (
"120 0 LINE",
"120 700 LINE",
"40 700 LINE",
"40 0 LINE"
);
},
{
closed = 1;
nodes = (
"120 179 LINE",
"503 625 LINE",
"468 700 LINE",
"83 250 LINE"
);
},
{
closed = 1;
nodes = (
"669 555 LINE",
"669 700 LINE",
"468 700 LINE",
"413 555 LINE"
);
},
{
closed = 1;
nodes = (
"208 364 LINE",
"468 0 LINE",
"503 75 LINE",
"275 400 LINE"
);
},
{
closed = 1;
nodes = (
"468 0 LINE",
"649 0 LINE",
"649 145 LINE",
"393 145 LINE"
);
}
);
width = 724;
}
);
unicode = 004B;
},
{
glyphname = L;
lastChange = "2019-06-26 06:00:05 +0000";
layers = (
{
layerId = "C6EFB8F5-3E54-4804-BD3F-E61218EDE0CA";
paths = (
{
closed = 1;
nodes = (
"627 0 LINE",
"627 145 LINE",
"123 145 LINE",
"123 700 LINE",
"40 700 LINE",
"40 0 LINE"
);
}
);
width = 662;
}
);
unicode = 004C;
},
{
glyphname = M;
lastChange = "2019-06-26 05:59:47 +0000";
layers = (
{
hints = (
{
horizontal = 1;
origin = "{0, 15}";
target = up;
type = BottomGhost;
},
{
horizontal = 1;
origin = "{0, 3}";
target = "{0, 12}";
type = Stem;
},
{
horizontal = 1;
origin = "{0, 14}";
target = "{0, 1}";
type = Stem;
},
{
origin = "{0, 15}";
target = "{0, 8}";
type = Stem;
}
);
layerId = "C6EFB8F5-3E54-4804-BD3F-E61218EDE0CA";
paths = (
{
closed = 1;
nodes = (
"106 0 LINE",
"153 545 LINE",
"235 545 LINE",
"340 67 LINE",
"601 67 LINE",
"706 545 LINE",
"788 545 LINE",
"835 0 LINE",
"916 0 LINE",
"856 700 LINE",
"657 700 LINE",
"552 222 LINE",
"389 222 LINE",
"284 700 LINE",
"85 700 LINE",
"25 0 LINE"
);
}
);
width = 941;
}
);
unicode = 004D;
},
{
glyphname = P;
lastChange = "2019-06-26 05:59:11 +0000";
layers = (
{
hints = (
{
horizontal = 1;
origin = "{0, 10}";
target = up;
type = BottomGhost;
},
{
horizontal = 1;
origin = "{0, 1}";
target = "{1, 8}";
type = Stem;
},
{
horizontal = 1;
origin = "{0, 9}";
target = "{1, 0}";
type = Stem;
},
{
origin = "{0, 10}";
target = "{0, 0}";
type = Stem;
},
{
origin = "{1, 4}";
target = "{0, 5}";
type = Stem;
}
);
layerId = "C6EFB8F5-3E54-4804-BD3F-E61218EDE0CA";
paths = (
{
closed = 1;
nodes = (
"120 0 LINE",
"120 214 LINE",
"468 214 LINE SMOOTH",
"641 214 OFFCURVE",
"723 311 OFFCURVE",
"723 457 CURVE SMOOTH",
"723 603 OFFCURVE",
"642 700 OFFCURVE",
"470 700 CURVE SMOOTH",
"40 700 LINE",
"40 0 LINE"
);
},
{
closed = 1;
nodes = (
"120 545 LINE",
"509 545 LINE SMOOTH",
"596 545 OFFCURVE",
"638 514 OFFCURVE",
"638 457 CURVE SMOOTH",
"638 400 OFFCURVE",
"598 369 OFFCURVE",
"509 369 CURVE SMOOTH",
"120 369 LINE"
);
}
);
width = 753;
}
);
unicode = 0050;
},
{
glyphname = R;
lastChange = "2019-06-26 05:59:25 +0000";
layers = (
{
hints = (
{
horizontal = 1;
origin = "{0, 20}";
target = "{2, 3}";
type = Stem;
},
{
horizontal = 1;
origin = "{0, 11}";
target = "{0, 10}";
type = Stem;
},
{
horizontal = 1;
origin = "{0, 19}";
target = "{0, 2}";
type = Stem;
},
{
origin = "{0, 20}";
target = "{0, 0}";
type = Stem;
},
{
origin = "{1, 0}";
target = "{1, 1}";
type = Stem;
},
{
origin = "{0, 6}";
target = "{0, 15}";
type = Stem;
}
);
layerId = "C6EFB8F5-3E54-4804-BD3F-E61218EDE0CA";
paths = (
{
closed = 1;
nodes = (
"120 0 LINE",
"120 684 LINE",
"89 545 LINE",
"530 545 LINE SMOOTH",
"591 545 OFFCURVE",
"632 522 OFFCURVE",
"632 472 CURVE SMOOTH",
"632 414 OFFCURVE",
"593 399 OFFCURVE",
"530 399 CURVE SMOOTH",
"98 399 LINE",
"98 244 LINE",
"465 244 LINE SMOOTH",
"635 244 OFFCURVE",
"717 323 OFFCURVE",
"717 472 CURVE SMOOTH",
"717 609 OFFCURVE",
"636 700 OFFCURVE",
"467 700 CURVE SMOOTH",
"40 700 LINE",
"40 0 LINE"
);
},
{
closed = 1;
nodes = (
"359 0 LINE",
"439 0 LINE",
"439 289 LINE",
"359 289 LINE"
);
},
{
closed = 1;
nodes = (
"369 0 LINE",
"705 0 LINE",
"705 155 LINE",
"369 155 LINE"
);
}
);
width = 752;
}
);
unicode = 0052;
},
{
glyphname = K.001;
lastChange = "2021-04-23 08:22:37 +0000";
layers = (
{
hints = (
{
horizontal = 1;
origin = "{0, 6}";
target = "{0, 13}";
type = Stem;
},
{
horizontal = 1;
origin = "{0, 8}";
target = "{0, 3}";
type = Stem;
},
{
horizontal = 1;
origin = "{0, 1}";
target = down;
type = TopGhost;
},
{
horizontal = 1;
origin = "{0, 5}";
target = down;
type = TopGhost;
},
{
origin = "{0, 6}";
target = "{0, 7}";
type = Stem;
},
{
place = "{396, 3}";
type = Stem;
}
);
layerId = "C6EFB8F5-3E54-4804-BD3F-E61218EDE0CA";
paths = (
{
closed = 1;
nodes = (
"753 707 LINE",
"626 707 LINE",
"270 399 LINE",
"120 399 LINE",
"120 700 LINE",
"40 700 LINE",
"40 0 LINE",
"120 0 LINE",
"120 244 LINE",
"306 244 LINE",
"396 0 LINE",
"755 0 LINE",
"755 155 LINE",
"422 155 LINE",
"348 354 LINE"
);
}
);
width = 800;
}
);
},
{
glyphname = O.001;
lastChange = "2021-04-21 10:53:53 +0000";
layers = (
{
layerId = "C6EFB8F5-3E54-4804-BD3F-E61218EDE0CA";
paths = (
{
closed = 1;
nodes = (
"293 -177 LINE",
"335 -137 LINE",
"314 -124 OFFCURVE",
"301 -94 OFFCURVE",
"301 -59 CURVE SMOOTH",
"301 85 OFFCURVE",
"518 299 OFFCURVE",
"518 441 CURVE SMOOTH",
"518 503 OFFCURVE",
"477 544 OFFCURVE",
"414 544 CURVE SMOOTH",
"305 544 OFFCURVE",
"222 424 OFFCURVE",
"222 267 CURVE SMOOTH",
"222 100 OFFCURVE",
"315 -5 OFFCURVE",
"464 -5 CURVE SMOOTH",
"639 -5 OFFCURVE",
"768 140 OFFCURVE",
"768 354 CURVE SMOOTH",
"768 554 OFFCURVE",
"680 710 OFFCURVE",
"476 710 CURVE SMOOTH",
"289 710 OFFCURVE",
"140 569 OFFCURVE",
"140 322 CURVE SMOOTH",
"140 173 OFFCURVE",
"205 128 OFFCURVE",
"223 128 CURVE",
"203 179 OFFCURVE",
"195 224 OFFCURVE",
"195 275 CURVE SMOOTH",
"195 472 OFFCURVE",
"313 583 OFFCURVE",
"476 583 CURVE SMOOTH",
"620 583 OFFCURVE",
"713 496 OFFCURVE",
"713 369 CURVE SMOOTH",
"713 234 OFFCURVE",
"609 148 OFFCURVE",
"455 148 CURVE SMOOTH",
"330 148 OFFCURVE",
"247 204 OFFCURVE",
"247 286 CURVE SMOOTH",
"247 357 OFFCURVE",
"307 421 OFFCURVE",
"373 421 CURVE SMOOTH",
"415 421 OFFCURVE",
"438 396 OFFCURVE",
"438 349 CURVE SMOOTH",
"438 162 OFFCURVE",
"71 -27 OFFCURVE",
"71 -139 CURVE SMOOTH",
"71 -163 OFFCURVE",
"89 -177 OFFCURVE",
"121 -177 CURVE SMOOTH"
);
}
);
width = 810;
}
);
},
{
glyphname = R.001;
lastChange = "2019-06-26 06:05:24 +0000";
layers = (
{
layerId = "C6EFB8F5-3E54-4804-BD3F-E61218EDE0CA";
paths = (
{
closed = 1;
nodes = (
"206 364 LINE",
"386 0 LINE",
"431 75 LINE",
"289 364 LINE"
);
},
{
closed = 1;
nodes = (
"120 0 LINE",
"120 684 LINE",
"89 545 LINE",
"500 545 LINE SMOOTH",
"561 545 OFFCURVE",
"602 522 OFFCURVE",
"602 472 CURVE SMOOTH",
"602 414 OFFCURVE",
"563 399 OFFCURVE",
"500 399 CURVE SMOOTH",
"98 399 LINE",
"98 244 LINE",
"465 244 LINE SMOOTH",
"635 244 OFFCURVE",
"717 323 OFFCURVE",
"717 472 CURVE SMOOTH",
"717 609 OFFCURVE",
"636 700 OFFCURVE",
"467 700 CURVE SMOOTH",
"40 700 LINE",
"40 0 LINE"
);
},
{
closed = 1;
nodes = (
"386 0 LINE",
"705 0 LINE",
"705 155 LINE",
"386 155 LINE"
);
}
);
width = 752;
}
);
},
{
glyphname = K.002;
lastChange = "2019-06-26 00:11:05 +0000";
layers = (
{
layerId = "C6EFB8F5-3E54-4804-BD3F-E61218EDE0CA";
paths = (
{
closed = 1;
nodes = (
"125 0 LINE",
"125 700 LINE",
"75 700 LINE",
"75 0 LINE"
);
},
{
closed = 1;
nodes = (
"115 179 LINE",
"498 625 LINE",
"499 700 LINE",
"114 250 LINE"
);
},
{
closed = 1;
nodes = (
"664 555 LINE",
"664 700 LINE",
"499 700 LINE",
"408 555 LINE"
);
},
{
closed = 1;
nodes = (
"362 0 LINE",
"412 0 LINE",
"297 424 LINE",
"260 377 LINE"
);
},
{
closed = 1;
nodes = (
"362 0 LINE",
"658 0 LINE",
"658 145 LINE",
"362 145 LINE"
);
}
);
width = 719;
}
);
},
{
glyphname = E.ss01;
lastChange = "2019-06-24 03:26:33 +0000";
layers = (
{
layerId = "C6EFB8F5-3E54-4804-BD3F-E61218EDE0CA";
paths = (
{
closed = 1;
nodes = (
"521 555 LINE",
"521 700 LINE",
"36 700 LINE",
"68 619 LINE",
"108 555 LINE"
);
},
{
closed = 1;
nodes = (
"521 0 LINE",
"521 145 LINE",
"108 145 LINE",
"36 0 LINE"
);
},
{
closed = 1;
nodes = (
"41 0 LINE",
"301 349 LINE",
"41 700 LINE",
"30 700 LINE",
"31 628 LINE",
"240 349 LINE",
"31 73 LINE",
"30 0 LINE"
);
}
);
width = 561;
}
);
},
{
glyphname = a;
lastChange = "2022-07-21 03:36:27 +0000";
layers = (
{
layerId = "C6EFB8F5-3E54-4804-BD3F-E61218EDE0CA";
paths = (
{
closed = 1;
nodes = (
"859 3 OFFCURVE",
"859 94 OFFCURVE",
"859 126 CURVE SMOOTH",
"859 185 LINE",
"813 185 LINE",
"813 173 LINE SMOOTH",
"813 129 OFFCURVE",
"798 108 OFFCURVE",
"753 108 CURVE SMOOTH",
"692 108 OFFCURVE",
"693 153 OFFCURVE",
"693 173 CURVE SMOOTH",
"694 370 LINE SMOOTH",
"694 437 OFFCURVE",
"710 605 OFFCURVE",
"444 605 CURVE SMOOTH",
"341 605 OFFCURVE",
"249 605 OFFCURVE",
"198 605 CURVE",
"199 468 LINE",
"231 468 OFFCURVE",
"330 468 OFFCURVE",
"473 468 CURVE SMOOTH",
"603 468 OFFCURVE",
"644 442 OFFCURVE",
"644 338 CURVE SMOOTH",
"644 126 LINE SMOOTH",
"644 93 OFFCURVE",
"644 3 OFFCURVE",
"751 3 CURVE SMOOTH"
);
},
{
closed = 1;
nodes = (
"511 -10 OFFCURVE",
"618 58 OFFCURVE",
"618 178 CURVE SMOOTH",
"618 299 OFFCURVE",
"511 367 OFFCURVE",
"322 367 CURVE SMOOTH",
"135 367 OFFCURVE",
"30 299 OFFCURVE",
"30 178 CURVE SMOOTH",
"30 58 OFFCURVE",
"135 -10 OFFCURVE",
"322 -10 CURVE SMOOTH"
);
},
{
closed = 1;
nodes = (
"158 125 OFFCURVE",
"80 142 OFFCURVE",
"80 178 CURVE SMOOTH",
"80 215 OFFCURVE",
"158 232 OFFCURVE",
"323 232 CURVE SMOOTH",
"489 232 OFFCURVE",
"567 215 OFFCURVE",
"567 178 CURVE SMOOTH",
"567 142 OFFCURVE",
"489 125 OFFCURVE",
"323 125 CURVE SMOOTH"
);
}
);
width = 866;
}
);
unicode = 0061;
},
{
glyphname = b;
lastChange = "2021-04-23 07:54:37 +0000";
layers = (
{
layerId = "C6EFB8F5-3E54-4804-BD3F-E61218EDE0CA";
paths = (
{
closed = 1;
nodes = (
"40 0 LINE",
"120 0 LINE",
"120 750 LINE",
"40 750 LINE"
);
},
{
closed = 1;
nodes = (
"609 -10 OFFCURVE",
"741 115 OFFCURVE",
"741 303 CURVE SMOOTH",
"741 490 OFFCURVE",
"609 615 OFFCURVE",
"411 615 CURVE SMOOTH",
"213 615 OFFCURVE",
"81 490 OFFCURVE",
"81 303 CURVE SMOOTH",
"81 115 OFFCURVE",
"213 -10 OFFCURVE",
"411 -10 CURVE SMOOTH"
);
},
{
closed = 1;
nodes = (
"232 130 OFFCURVE",
"120 199 OFFCURVE",
"120 303 CURVE SMOOTH",
"120 406 OFFCURVE",
"232 475 OFFCURVE",
"401 475 CURVE SMOOTH",
"570 475 OFFCURVE",
"682 406 OFFCURVE",
"682 303 CURVE SMOOTH",
"682 199 OFFCURVE",
"570 130 OFFCURVE",
"401 130 CURVE SMOOTH"
);
}
);
width = 776;
}
);
unicode = 0062;
},
{
glyphname = c;
lastChange = "2022-10-11 14:02:24 +0000";
layers = (
{
layerId = "C6EFB8F5-3E54-4804-BD3F-E61218EDE0CA";
paths = (
{
closed = 1;
nodes = (
"360 522 OFFCURVE",
"161 505 OFFCURVE",
"153 478 CURVE SMOOTH",
"145 451 OFFCURVE",
"44 285 OFFCURVE",
"171 200 CURVE SMOOTH",
"298 115 OFFCURVE",
"443 228 OFFCURVE",
"446 230 CURVE",
"459 369 LINE",
"289 315 LINE",
"260 411 LINE",
"298 422 OFFCURVE",
"370 445 OFFCURVE",
"373 445 CURVE",
"432 505 LINE"
);
}
);
width = 600;
}
);
unicode = 0063;
},
{
glyphname = e;
lastChange = "2021-04-23 08:13:08 +0000";
layers = (
{
layerId = "C6EFB8F5-3E54-4804-BD3F-E61218EDE0CA";
paths = (
{
closed = 1;
nodes = (
"35 115 OFFCURVE",
"166 -10 OFFCURVE",
"381 -10 CURVE SMOOTH",
"435 -10 OFFCURVE",
"516 -2 OFFCURVE",
"558 14 CURVE",
"558 157 LINE",
"517 139 OFFCURVE",
"435 130 OFFCURVE",
"371 130 CURVE SMOOTH",
"244 130 OFFCURVE",
"150 165 OFFCURVE",
"109 238 CURVE",
"706 238 LINE",
"713 268 OFFCURVE",
"715 288 OFFCURVE",
"715 310 CURVE SMOOTH",
"715 490 OFFCURVE",
"575 615 OFFCURVE",
"372 615 CURVE SMOOTH",
"170 615 OFFCURVE",
"35 490 OFFCURVE",
"35 301 CURVE SMOOTH"
);
},
{
closed = 1;
nodes = (
"108 415 OFFCURVE",
"213 475 OFFCURVE",
"364 475 CURVE SMOOTH",
"529 475 OFFCURVE",
"643 415 OFFCURVE",
"657 324 CURVE",
"95 324 LINE"
);
}
);
width = 750;
}
);
unicode = 0065;
},
{
glyphname = i;
lastChange = "2019-06-26 07:22:26 +0000";
layers = (
{
layerId = "C6EFB8F5-3E54-4804-BD3F-E61218EDE0CA";
paths = (
{
closed = 1;
nodes = (
"127 655 OFFCURVE",
"87 684 OFFCURVE",
"87 728 CURVE SMOOTH",
"87 771 OFFCURVE",
"127 800 OFFCURVE",
"186 800 CURVE SMOOTH",
"245 800 OFFCURVE",
"284 771 OFFCURVE",
"284 728 CURVE SMOOTH",
"284 684 OFFCURVE",
"245 655 OFFCURVE",
"186 655 CURVE SMOOTH"
);
},
{
closed = 1;
nodes = (
"145 0 LINE",
"225 0 LINE",
"225 605 LINE",
"145 605 LINE"
);
},
{
closed = 1;
nodes = (
"15 605 LINE",
"15 465 LINE",
"355 465 LINE",
"355 605 LINE"
);
},
{
closed = 1;
nodes = (
"15 140 LINE",
"15 0 LINE",
"355 0 LINE",
"355 140 LINE"
);
}
);
width = 370;
}
);
unicode = 0069;
},
{
glyphname = k;
lastChange = "2019-06-26 07:22:16 +0000";
layers = (
{
layerId = "C6EFB8F5-3E54-4804-BD3F-E61218EDE0CA";
paths = (
{
closed = 1;
nodes = (
"120 0 LINE",
"120 700 LINE",
"40 700 LINE",
"40 0 LINE"
);
},
{
closed = 1;
nodes = (
"514 605 LINE",
"276 399 LINE",
"302 314 LINE",
"636 605 LINE"
);
},
{
closed = 1;
nodes = (
"399 0 LINE",
"655 0 LINE",
"655 155 LINE",
"399 155 LINE"
);
},
{
closed = 1;
nodes = (
"306 244 LINE",
"396 0 LINE",
"479 0 LINE",
"332 399 LINE",
"90 399 LINE",
"90 244 LINE"
);
}
);
width = 701;
}
);
unicode = 006B;
},
{
glyphname = l;
lastChange = "2021-04-23 08:01:20 +0000";
layers = (
{
layerId = "C6EFB8F5-3E54-4804-BD3F-E61218EDE0CA";
paths = (
{
closed = 1;
nodes = (
"241 162 OFFCURVE",
"224 143 OFFCURVE",
"181 143 CURVE SMOOTH",
"122 143 OFFCURVE",
"120 184 OFFCURVE",
"120 205 CURVE SMOOTH",
"120 593 LINE SMOOTH",
"120 637 OFFCURVE",
"129 748 OFFCURVE",
"-20 748 CURVE SMOOTH",
"-53 748 LINE",
"-53 611 LINE",
"40 611 LINE",
"40 142 LINE SMOOTH",
"40 75 OFFCURVE",
"95 3 OFFCURVE",
"178 3 CURVE SMOOTH",
"258 3 OFFCURVE",
"317 54 OFFCURVE",
"317 139 CURVE SMOOTH",
"317 220 LINE",
"241 220 LINE",
"241 208 LINE SMOOTH"
);
}
);
width = 330;
}
);
unicode = 006C;
},
{
glyphname = m;
lastChange = "2019-06-26 07:19:04 +0000";
layers = (
{
layerId = "C6EFB8F5-3E54-4804-BD3F-E61218EDE0CA";
paths = (
{
closed = 1;
nodes = (
"40 0 LINE",
"120 0 LINE",
"120 605 LINE",
"40 605 LINE"
);
},
{
closed = 1;
nodes = (
"410 0 LINE",
"490 0 LINE",
"490 605 LINE",
"410 605 LINE"
);
},
{
closed = 1;
nodes = (
"780 0 LINE",
"860 0 LINE",
"860 605 LINE",
"780 605 LINE"
);
},
{
closed = 1;
nodes = (
"80 605 LINE",
"80 465 LINE",
"820 465 LINE",
"820 605 LINE"
);
}
);
width = 900;
}
);
unicode = 006D;
},
{
glyphname = o;
lastChange = "2021-04-21 10:36:16 +0000";
layers = (
{
layerId = "C6EFB8F5-3E54-4804-BD3F-E61218EDE0CA";
paths = (
{
closed = 1;
nodes = (
"579 -10 OFFCURVE",
"715 115 OFFCURVE",
"715 303 CURVE SMOOTH",
"715 490 OFFCURVE",
"579 615 OFFCURVE",
"375 615 CURVE SMOOTH",
"171 615 OFFCURVE",
"35 490 OFFCURVE",
"35 303 CURVE SMOOTH",
"35 115 OFFCURVE",
"171 -10 OFFCURVE",
"375 -10 CURVE SMOOTH"
);
},
{
closed = 1;
nodes = (
"211 130 OFFCURVE",
"94 196 OFFCURVE",
"94 303 CURVE SMOOTH",
"94 409 OFFCURVE",
"211 475 OFFCURVE",
"375 475 CURVE SMOOTH",
"539 475 OFFCURVE",
"656 409 OFFCURVE",
"656 303 CURVE SMOOTH",
"656 196 OFFCURVE",
"539 130 OFFCURVE",
"375 130 CURVE SMOOTH"
);
}
);
width = 750;
}
);
unicode = 006F;
},
{
glyphname = p;
lastChange = "2019-06-26 07:12:54 +0000";
layers = (
{
layerId = "C6EFB8F5-3E54-4804-BD3F-E61218EDE0CA";
paths = (
{
closed = 1;
nodes = (
"40 -165 LINE",
"120 -165 LINE",
"120 605 LINE",
"40 605 LINE"
);
},
{
closed = 1;
nodes = (
"605 -10 OFFCURVE",
"742 115 OFFCURVE",
"742 303 CURVE SMOOTH",
"742 490 OFFCURVE",
"605 615 OFFCURVE",
"399 615 CURVE SMOOTH",
"197 615 OFFCURVE",
"62 490 OFFCURVE",
"62 303 CURVE SMOOTH",
"62 115 OFFCURVE",
"197 -10 OFFCURVE",
"399 -10 CURVE SMOOTH"
);
},
{
closed = 1;
nodes = (
"229 130 OFFCURVE",
"120 199 OFFCURVE",
"120 303 CURVE SMOOTH",
"120 406 OFFCURVE",
"229 475 OFFCURVE",
"391 475 CURVE SMOOTH",
"552 475 OFFCURVE",
"659 406 OFFCURVE",
"659 303 CURVE SMOOTH",
"659 199 OFFCURVE",
"552 130 OFFCURVE",
"391 130 CURVE SMOOTH"
);
}
);
width = 762;
}
);
unicode = 0070;
},
{
glyphname = r;
lastChange = "2021-04-23 08:05:09 +0000";
layers = (
{
layerId = "C6EFB8F5-3E54-4804-BD3F-E61218EDE0CA";
paths = (
{
closed = 1;
nodes = (
"40 0 LINE",
"120 0 LINE",
"120 605 LINE",
"40 605 LINE"
);
},
{
closed = 1;
nodes = (
"510 605 LINE",
"473 613 OFFCURVE",
"433 615 OFFCURVE",
"389 615 CURVE SMOOTH",
"193 615 OFFCURVE",
"62 458 OFFCURVE",
"62 223 CURVE",
"120 303 LINE",
"120 406 OFFCURVE",
"225 475 OFFCURVE",
"381 475 CURVE SMOOTH",
"429 475 OFFCURVE",
"472 470 OFFCURVE",
"510 460 CURVE"
);
}
);
width = 533;
}
);
unicode = 0072;
},
{
glyphname = k.001;
lastChange = "2019-06-26 07:24:52 +0000";
layers = (
{
layerId = "C6EFB8F5-3E54-4804-BD3F-E61218EDE0CA";
paths = (
{
closed = 1;
nodes = (
"120 0 LINE",
"120 700 LINE",
"40 700 LINE",
"40 0 LINE"
);
},
{
closed = 1;
nodes = (
"514 605 LINE",
"70 220 LINE",
"96 135 LINE",
"636 605 LINE"
);
},
{
closed = 1;
nodes = (
"399 0 LINE",
"655 0 LINE",
"655 155 LINE",
"399 155 LINE"
);
},
{
closed = 1;
nodes = (
"276 325 LINE",
"396 0 LINE",
"479 0 LINE",
"332 399 LINE"
);
}
);
width = 701;
}
);
},
{
glyphname = a.ss01;
lastChange = "2022-07-21 03:36:07 +0000";
layers = (
{
layerId = "C6EFB8F5-3E54-4804-BD3F-E61218EDE0CA";
paths = (
{
closed = 1;
nodes = (
"741 3 OFFCURVE",
"771 36 OFFCURVE",
"771 106 CURVE SMOOTH",
"771 185 LINE",
"731 185 LINE",
"731 173 LINE SMOOTH",
"731 129 OFFCURVE",
"713 108 OFFCURVE",
"679 108 CURVE SMOOTH",
"630 108 OFFCURVE",
"631 153 OFFCURVE",
"631 173 CURVE SMOOTH",
"632 370 LINE",
"632 437 OFFCURVE",
"648 615 OFFCURVE",
"382 615 CURVE SMOOTH",
"266 615 OFFCURVE",
"156 581 OFFCURVE",
"106 553 CURVE",
"107 383 LINE",
"142 404 OFFCURVE",
"253 480 OFFCURVE",
"414 480 CURVE SMOOTH",
"613 480 OFFCURVE",
"585 364 OFFCURVE",
"585 338 CURVE SMOOTH",
"585 106 LINE SMOOTH",
"585 36 OFFCURVE",
"614 3 OFFCURVE",
"677 3 CURVE SMOOTH"
);
},
{
closed = 1;
nodes = (
"386 -10 OFFCURVE",
"476 22 OFFCURVE",
"535 79 CURVE",
"537 142 LINE",
"463 130 OFFCURVE",
"341 126 OFFCURVE",
"264 126 CURVE SMOOTH",
"131 126 OFFCURVE",
"83 138 OFFCURVE",
"83 171 CURVE SMOOTH",
"83 211 OFFCURVE",
"153 217 OFFCURVE",
"249 217 CURVE SMOOTH",
"433 217 OFFCURVE",
"507 217 OFFCURVE",
"601 217 CURVE",
"601 347 LINE",
"547 347 OFFCURVE",
"428 348 OFFCURVE",
"390 348 CURVE SMOOTH",
"141 348 OFFCURVE",
"30 306 OFFCURVE",
"30 172 CURVE SMOOTH",
"30 53 OFFCURVE",
"117 -10 OFFCURVE",
"274 -10 CURVE SMOOTH"
);
}
);
width = 776;
}
);
},
{
glyphname = a.ss02;
lastChange = "2019-08-09 01:31:54 +0000";
layers = (
{
layerId = "C6EFB8F5-3E54-4804-BD3F-E61218EDE0CA";
paths = (
{
closed = 1;
nodes = (
"633 0 LINE",
"634 370 LINE SMOOTH",
"634 437 OFFCURVE",
"650 605 OFFCURVE",
"384 605 CURVE SMOOTH",
"281 605 OFFCURVE",
"189 605 OFFCURVE",
"138 605 CURVE",
"139 468 LINE",
"174 471 OFFCURVE",
"271 468 OFFCURVE",
"413 468 CURVE SMOOTH",
"520 468 OFFCURVE",
"554 442 OFFCURVE",
"554 338 CURVE SMOOTH",
"554 0 LINE"
);
},
{
closed = 1;
nodes = (
"517 -10 OFFCURVE",
"622 58 OFFCURVE",
"622 178 CURVE SMOOTH",
"622 299 OFFCURVE",
"515 367 OFFCURVE",
"332 367 CURVE SMOOTH",
"134 367 OFFCURVE",
"25 299 OFFCURVE",
"25 178 CURVE SMOOTH",
"25 58 OFFCURVE",
"133 -10 OFFCURVE",
"332 -10 CURVE SMOOTH"
);
},
{
closed = 1;
nodes = (
"183 125 OFFCURVE",
"112 142 OFFCURVE",
"112 178 CURVE SMOOTH",
"112 215 OFFCURVE",
"183 232 OFFCURVE",
"333 232 CURVE SMOOTH",
"484 232 OFFCURVE",
"554 215 OFFCURVE",
"554 178 CURVE SMOOTH",
"554 142 OFFCURVE",
"484 125 OFFCURVE",
"333 125 CURVE SMOOTH"
);
}
);
width = 671;
}
);
},
{
glyphname = L_P;
lastChange = "2019-06-26 01:52:09 +0000";
layers = (
{
hints = (
{
horizontal = 1;
origin = "{0, 2}";
target = "{1, 8}";
type = Stem;
},
{
horizontal = 1;
origin = "{4, 5}";
target = "{3, 2}";
type = Stem;
},
{
horizontal = 1;
origin = "{0, 8}";
target = "{1, 2}";
type = Stem;
},
{
horizontal = 1;
origin = "{2, 5}";
target = "{2, 2}";
type = Stem;
},
{
horizontal = 1;
origin = "{4, 2}";
target = "{2, 4}";
type = Stem;
},
{
origin = "{0, 11}";
target = "{1, 11}";
type = Stem;
},
{
origin = "{2, 5}";
target = "{2, 2}";
type = Stem;
},
{
origin = "{3, 4}";
target = "{3, 5}";
type = Stem;
},
{
origin = "{1, 5}";
target = "{0, 5}";
type = Stem;
},
{
origin = "{3, 10}";
target = "{4, 8}";
type = Stem;
}
);
layerId = "C6EFB8F5-3E54-4804-BD3F-E61218EDE0CA";
paths = (
{
closed = 1;
nodes = (
"75 546 OFFCURVE",
"127 505 OFFCURVE",
"205 505 CURVE SMOOTH",
"283 505 OFFCURVE",
"335 546 OFFCURVE",
"335 609 CURVE SMOOTH",
"335 670 OFFCURVE",
"283 710 OFFCURVE",
"205 710 CURVE SMOOTH",
"127 710 OFFCURVE",
"75 670 OFFCURVE",
"75 609 CURVE SMOOTH"
);
},
{
closed = 1;
nodes = (
"92 656 OFFCURVE",
"137 686 OFFCURVE",
"205 686 CURVE SMOOTH",
"273 686 OFFCURVE",
"318 656 OFFCURVE",
"318 609 CURVE SMOOTH",
"318 560 OFFCURVE",
"274 529 OFFCURVE",
"205 529 CURVE SMOOTH",
"137 529 OFFCURVE",
"92 560 OFFCURVE",
"92 609 CURVE SMOOTH"
);
},
{
closed = 1;
nodes = (
"238 560 LINE",
"238 582 LINE",
"157 582 LINE",
"157 656 LINE",
"142 656 LINE",
"142 560 LINE"
);
},
{
closed = 1;
nodes = (
"170 605 OFFCURVE",
"182 592 OFFCURVE",
"205 592 CURVE SMOOTH",
"253 591 LINE",
"253 560 LINE",
"267 560 LINE",
"267 656 LINE",
"204 656 LINE SMOOTH",
"181 656 OFFCURVE",
"170 644 OFFCURVE",
"170 624 CURVE SMOOTH"
);
},
{
closed = 1;
nodes = (
"185 631 OFFCURVE",
"191 634 OFFCURVE",
"203 634 CURVE SMOOTH",
"253 634 LINE",
"253 614 LINE",
"203 614 LINE SMOOTH",
"191 614 OFFCURVE",
"185 618 OFFCURVE",
"185 624 CURVE SMOOTH"
);
}
);
width = 410;
}
);
},
{
glyphname = E.circled;
lastChange = "2021-04-23 08:30:30 +0000";
layers = (
{
layerId = "C6EFB8F5-3E54-4804-BD3F-E61218EDE0CA";
paths = (
{
closed = 1;
nodes = (
"498 -39 OFFCURVE",
"630 72 OFFCURVE",
"689 269 CURVE",
"509 270 LINE",
"462 158 OFFCURVE",
"375 96 OFFCURVE",
"273 96 CURVE SMOOTH",
"172 96 OFFCURVE",
"104 156 OFFCURVE",
"104 242 CURVE SMOOTH",
"104 282 OFFCURVE",
"119 323 OFFCURVE",
"141 344 CURVE",
"182 291 OFFCURVE",
"231 268 OFFCURVE",
"291 268 CURVE SMOOTH",
"364 268 OFFCURVE",
"431 303 OFFCURVE",
"431 379 CURVE SMOOTH",
"431 449 OFFCURVE",
"374 497 OFFCURVE",
"293 497 CURVE SMOOTH",
"246 497 OFFCURVE",
"200 481 OFFCURVE",
"171 463 CURVE",
"168 473 OFFCURVE",
"167 484 OFFCURVE",
"167 492 CURVE SMOOTH",
"167 553 OFFCURVE",
"220 605 OFFCURVE",
"334 605 CURVE SMOOTH",
"421 605 OFFCURVE",
"507 575 OFFCURVE",
"583 530 CURVE",
"624 736 LINE",
"644 679 LINE",
"552 722 OFFCURVE",
"444 743 OFFCURVE",
"363 743 CURVE SMOOTH",
"190 743 OFFCURVE",
"74 654 OFFCURVE",
"74 521 CURVE SMOOTH",
"74 488 OFFCURVE",
"82 453 OFFCURVE",
"99 417 CURVE",
"56 375 OFFCURVE",
"23 323 OFFCURVE",
"23 237 CURVE SMOOTH",
"23 77 OFFCURVE",
"137 -39 OFFCURVE",
"315 -39 CURVE SMOOTH"
);
},
{
closed = 1;
nodes = (
"251 341 OFFCURVE",
"223 359 OFFCURVE",
"202 392 CURVE",
"236 414 OFFCURVE",
"263 418 OFFCURVE",
"286 418 CURVE SMOOTH",
"328 418 OFFCURVE",
"348 404 OFFCURVE",
"348 381 CURVE SMOOTH",
"348 352 OFFCURVE",
"317 341 OFFCURVE",
"288 341 CURVE SMOOTH"
);
}
